<!-- icon666.com - MILLIONS vector ICONS FREE --><svg id="Capa_1" enable-background="new 0 0 512 512" viewBox="0 0 512 512" xmlns="http://www.w3.org/2000/svg"><g><path d="m340.6 391h-205.6c-74.399 0-135-60.601-135-135 0-74.873 60.959-135 135-135h36.4l144.6 15z" fill="#f3f5f9" style="fill: rgb(255, 255, 255);"></path><g><path d="m255.7 129.745v261.255h84.9l-24.6-255z" fill="#d8e0f0" style="fill: rgb(255, 255, 255);"></path></g><g><path d="m377 121h-205.6c50.099 24.3 84.6 75.599 84.6 135 0 59.399 34.501 110.7 84.6 135h36.4c73.978 0 135-60.072 135-135 0-74.401-60.601-135-135-135z" fill="#7adfe3" style="fill: rgb(205, 184, 255);"></path></g><path d="m256 256c0 59.399 34.501 110.7 84.6 135h36.4c73.978 0 135-60.071 135-135 0-74.401-60.601-135-135-135h-121.3v130.845c.038 1.401.3 2.743.3 4.155z" fill="#68c9e0" style="fill: rgb(148, 107, 225);"></path><g id="Language_2_"><path d="m135 188.5c-24.814 0-45 20.186-45 45v75h30v-30h30v30h30v-75c0-24.814-20.186-45-45-45zm-15 60v-15c0-8.276 6.738-15 15-15s15 6.724 15 15v15z" fill="#4d5e80" style="fill: rgb(105, 77, 128);"></path><path d="m421 256v-30h-30v-30h-30v30h-30v30h30v15c0 8.276-6.738 15-15 15h-15v30h15c11.567 0 22.02-4.508 30-11.704 7.98 7.196 18.433 11.704 30 11.704h15v-30h-15c-8.262 0-15-6.724-15-15v-15z" fill="#d8e0f0" style="fill: rgb(255, 255, 255);"></path></g></g></svg>